<svg version="1.2" baseProfile="tiny-ps" xmlns="http://www.w3.org/2000/svg" viewBox="0 0 450 900" width="450" height="900">
	<title>layered-waves-haikei-svg</title>
	<style>
		tspan { white-space:pre }
		.shp0 { fill: #000814 } 
		.shp1 { fill: #001d3d } 
		.shp2 { fill: #2c2956 } 
		.shp3 { fill: #583168 } 
		.shp4 { fill: #863771 } 
		.shp5 { fill: #b23e71 } 
		.shp6 { fill: #d84c67 } 
		.shp7 { fill: #f56557 } 
		.shp8 { fill: #ff8741 } 
		.shp9 { fill: #ffad26 } 
		.shp10 { fill: #ffd60a } 
	</style>
	<path id="Layer" class="shp0" d="M0 0L450 0L450 900L0 900L0 0Z" />
	<path id="Layer" class="shp1" d="M391 0L382.7 25C374.3 50 357.7 100 344.2 150C330.7 200 320.3 250 312.3 300C304.3 350 298.7 400 297.7 450C296.7 500 300.3 550 307.8 600C315.3 650 326.7 700 328.8 750C331 800 324 850 320.5 875L317 900L0 900L0 875C0 850 0 800 0 750C0 700 0 650 0 600C0 550 0 500 0 450C0 400 0 350 0 300C0 250 0 200 0 150C0 100 0 50 0 25L0 0L391 0Z" />
	<path id="Layer" class="shp2" d="M292 0L285 25C278 50 264 100 275 150C286 200 322 250 330.5 300C339 350 320 400 305 450C290 500 279 550 286.7 600C294.3 650 320.7 700 329.5 750C338.3 800 329.7 850 325.3 875L321 900L0 900L0 875C0 850 0 800 0 750C0 700 0 650 0 600C0 550 0 500 0 450C0 400 0 350 0 300C0 250 0 200 0 150C0 100 0 50 0 25L0 0L292 0Z" />
	<path id="Layer" class="shp3" d="M237 0L248.8 25C260.7 50 284.3 100 283.7 150C283 200 258 250 245.5 300C233 350 233 400 243.2 450C253.3 500 273.7 550 277.2 600C280.7 650 267.3 700 264.3 750C261.3 800 268.7 850 272.3 875L276 900L0 900L0 875C0 850 0 800 0 750C0 700 0 650 0 600C0 550 0 500 0 450C0 400 0 350 0 300C0 250 0 200 0 150C0 100 0 50 0 25L0 0L237 0Z" />
	<path id="Layer" class="shp4" d="M228 0L227.3 25C226.7 50 225.3 100 233.7 150C242 200 260 250 260.3 300C260.7 350 243.3 400 243 450C242.7 500 259.3 550 257.7 600C256 650 236 700 227.8 750C219.7 800 223.3 850 225.2 875L227 900L0 900L0 875C0 850 0 800 0 750C0 700 0 650 0 600C0 550 0 500 0 450C0 400 0 350 0 300C0 250 0 200 0 150C0 100 0 50 0 25L0 0L228 0Z" />
	<path id="Layer" class="shp5" d="M174 0L185.3 25C196.7 50 219.3 100 219 150C218.7 200 195.3 250 184.7 300C174 350 176 400 179.5 450C183 500 188 550 189.3 600C190.7 650 188.3 700 196.5 750C204.7 800 223.3 850 232.7 875L242 900L0 900L0 875C0 850 0 800 0 750C0 700 0 650 0 600C0 550 0 500 0 450C0 400 0 350 0 300C0 250 0 200 0 150C0 100 0 50 0 25L0 0L174 0Z" />
	<path id="Layer" class="shp6" d="M149 0L150.8 25C152.7 50 156.3 100 155.7 150C155 200 150 250 147.5 300C145 350 145 400 153 450C161 500 177 550 186 600C195 650 197 700 194.5 750C192 800 185 850 181.5 875L178 900L0 900L0 875C0 850 0 800 0 750C0 700 0 650 0 600C0 550 0 500 0 450C0 400 0 350 0 300C0 250 0 200 0 150C0 100 0 50 0 25L0 0L149 0Z" />
	<path id="Layer" class="shp7" d="M122 0L122.7 25C123.3 50 124.7 100 132.5 150C140.3 200 154.7 250 157.5 300C160.3 350 151.7 400 148.8 450C146 500 149 550 145 600C141 650 130 700 130.2 750C130.3 800 141.7 850 147.3 875L153 900L0 900L0 875C0 850 0 800 0 750C0 700 0 650 0 600C0 550 0 500 0 450C0 400 0 350 0 300C0 250 0 200 0 150C0 100 0 50 0 25L0 0L122 0Z" />
	<path id="Layer" class="shp8" d="M123 0L120.2 25C117.3 50 111.7 100 110.7 150C109.7 200 113.3 250 110.7 300C108 350 99 400 96.5 450C94 500 98 550 106.2 600C114.3 650 126.7 700 131.8 750C137 800 135 850 134 875L133 900L0 900L0 875C0 850 0 800 0 750C0 700 0 650 0 600C0 550 0 500 0 450C0 400 0 350 0 300C0 250 0 200 0 150C0 100 0 50 0 25L0 0L123 0Z" />
	<path id="Layer" class="shp9" d="M76 0L77 25C78 50 80 100 80.3 150C80.7 200 79.3 250 81.8 300C84.3 350 90.7 400 92.7 450C94.7 500 92.3 550 88.5 600C84.7 650 79.3 700 75.2 750C71 800 68 850 66.5 875L65 900L0 900L0 875C0 850 0 800 0 750C0 700 0 650 0 600C0 550 0 500 0 450C0 400 0 350 0 300C0 250 0 200 0 150C0 100 0 50 0 25L0 0L76 0Z" />
	<path id="Layer" class="shp10" d="M38 0L39.2 25C40.3 50 42.7 100 45.7 150C48.7 200 52.3 250 51.2 300C50 350 44 400 41 450C38 500 38 550 38.8 600C39.7 650 41.3 700 44.3 750C47.3 800 51.7 850 53.8 875L56 900L0 900L0 875C0 850 0 800 0 750C0 700 0 650 0 600C0 550 0 500 0 450C0 400 0 350 0 300C0 250 0 200 0 150C0 100 0 50 0 25L0 0L38 0Z" />
</svg>